<svg width="81" height="43" fill="none" xmlns="http://www.w3.org/2000/svg"><g clip-path="url(#clip0)"><path d="M40.612 37.506l16.254 5.428V.066L40.612 5.494v32.012z" fill="#4CC7E9"/><path d="M0 16.373h2.787v1.61a3.787 3.787 0 011.368-1.358 3.67 3.67 0 011.841-.491c2.46 0 4.356 1.872 4.356 5.259v.168c0 3.386-1.873 5.308-4.356 5.308a3.503 3.503 0 01-1.842-.438 3.615 3.615 0 01-1.367-1.34v5.068H0V16.373zm7.518 5.212v-.169c0-2.089-1.005-3.098-2.39-3.098-1.45 0-2.459 1.03-2.459 3.098v.169c0 2.065.96 3.074 2.46 3.074 1.546-.025 2.389-1.081 2.389-3.074zm4.332 1.416v-6.628h2.764v6.22c0 1.393.562 2.065 1.734 2.065 1.171 0 2.084-.744 2.084-2.257v-6.028h2.764V26.65h-2.74v-1.609c-.3.59-.761 1.077-1.327 1.4a3.257 3.257 0 01-1.86.426c-1.967 0-3.418-1.177-3.418-3.867zm11.477-11.287h2.763v14.914h-2.763V11.714zm5.247 11.888v-5.211h-1.288v-2.017h1.288v-2.21h2.764v2.21h2.108v2.017h-2.108v4.947c0 .816.398 1.224 1.1 1.224.361.015.72-.05 1.054-.192v2.212a4.77 4.77 0 01-1.686.264c-2.084-.002-3.232-1.107-3.232-3.244zm35.529-7.23h2.787v1.97a3.367 3.367 0 011.287-1.588 3.24 3.24 0 011.945-.526v2.641c-2.06-.024-3.232.673-3.232 2.642v5.14h-2.787v-10.28zM71.246 23v-6.628h2.764v6.22c0 1.393.562 2.065 1.733 2.065 1.17 0 2.084-.744 2.084-2.257v-6.028h2.764V26.65h-2.764v-1.609c-.3.59-.76 1.076-1.327 1.4a3.259 3.259 0 01-1.859.425c-1.944 0-3.395-1.177-3.395-3.866z" fill="#333740"/></g><defs><clipPath id="clip0"><path fill="#fff" transform="translate(0 .066)" d="M0 0h80.591v42.868H0z"/></clipPath></defs></svg>